<mxfile host="app.diagrams.net" modified="2022-01-23T13:46:01.073Z" agent="5.0 (Windows NT 6.1; Win64; x64) AppleWebKit/537.36 (KHTML, like Gecko) Chrome/97.0.4692.99 Safari/537.36" etag="U32WWxr_GqF8E5FRLB5T" version="16.4.5" type="github" pages="6">
  <diagram id="dVWBIfjWxifNW_AQZayu" name="Page-1">
    <mxGraphModel dx="1772" dy="-272" grid="1" gridSize="10" guides="1" tooltips="1" connect="1" arrows="1" fold="1" page="1" pageScale="1" pageWidth="850" pageHeight="1100" math="0" shadow="0">
      <root>
        <mxCell id="0" />
        <mxCell id="1" parent="0" />
        <mxCell id="SP85iaM7-Yl6edaDid_6-69" value="gejala" style="swimlane;fontStyle=0;childLayout=stackLayout;horizontal=1;startSize=26;fillColor=none;horizontalStack=0;resizeParent=1;resizeParentMax=0;resizeLast=0;collapsible=1;marginBottom=0;" vertex="1" parent="1">
          <mxGeometry x="1934.3333333333335" y="2570.333333333333" width="140" height="210" as="geometry" />
        </mxCell>
        <mxCell id="SP85iaM7-Yl6edaDid_6-70" value="+ id_gejala: int(11)" style="text;strokeColor=none;fillColor=none;align=left;verticalAlign=top;spacingLeft=4;spacingRight=4;overflow=hidden;rotatable=0;points=[[0,0.5],[1,0.5]];portConstraint=eastwest;" vertex="1" parent="SP85iaM7-Yl6edaDid_6-69">
          <mxGeometry y="26" width="140" height="26" as="geometry" />
        </mxCell>
        <mxCell id="SP85iaM7-Yl6edaDid_6-71" value="+ kode_gejala: int(3)" style="text;strokeColor=none;fillColor=none;align=left;verticalAlign=top;spacingLeft=4;spacingRight=4;overflow=hidden;rotatable=0;points=[[0,0.5],[1,0.5]];portConstraint=eastwest;" vertex="1" parent="SP85iaM7-Yl6edaDid_6-69">
          <mxGeometry y="52" width="140" height="26" as="geometry" />
        </mxCell>
        <mxCell id="SP85iaM7-Yl6edaDid_6-72" value="+ gejala: varchar(100)" style="text;strokeColor=none;fillColor=none;align=left;verticalAlign=top;spacingLeft=4;spacingRight=4;overflow=hidden;rotatable=0;points=[[0,0.5],[1,0.5]];portConstraint=eastwest;" vertex="1" parent="SP85iaM7-Yl6edaDid_6-69">
          <mxGeometry y="78" width="140" height="42" as="geometry" />
        </mxCell>
        <mxCell id="SP85iaM7-Yl6edaDid_6-73" value="+ tambah data()" style="text;strokeColor=none;fillColor=none;align=left;verticalAlign=top;spacingLeft=4;spacingRight=4;overflow=hidden;rotatable=0;points=[[0,0.5],[1,0.5]];portConstraint=eastwest;" vertex="1" parent="SP85iaM7-Yl6edaDid_6-69">
          <mxGeometry y="120" width="140" height="30" as="geometry" />
        </mxCell>
        <mxCell id="SP85iaM7-Yl6edaDid_6-74" value="+ ubah data()" style="text;strokeColor=none;fillColor=none;align=left;verticalAlign=top;spacingLeft=4;spacingRight=4;overflow=hidden;rotatable=0;points=[[0,0.5],[1,0.5]];portConstraint=eastwest;" vertex="1" parent="SP85iaM7-Yl6edaDid_6-69">
          <mxGeometry y="150" width="140" height="30" as="geometry" />
        </mxCell>
        <mxCell id="SP85iaM7-Yl6edaDid_6-75" value="+ hapus data()" style="text;strokeColor=none;fillColor=none;align=left;verticalAlign=top;spacingLeft=4;spacingRight=4;overflow=hidden;rotatable=0;points=[[0,0.5],[1,0.5]];portConstraint=eastwest;" vertex="1" parent="SP85iaM7-Yl6edaDid_6-69">
          <mxGeometry y="180" width="140" height="30" as="geometry" />
        </mxCell>
        <mxCell id="SP85iaM7-Yl6edaDid_6-76" value="" style="endArrow=none;html=1;rounded=0;entryX=1.01;entryY=0.905;entryDx=0;entryDy=0;exitX=0.01;exitY=0.905;exitDx=0;exitDy=0;exitPerimeter=0;entryPerimeter=0;" edge="1" parent="SP85iaM7-Yl6edaDid_6-69" source="SP85iaM7-Yl6edaDid_6-72" target="SP85iaM7-Yl6edaDid_6-72">
          <mxGeometry width="50" height="50" relative="1" as="geometry">
            <mxPoint x="261.9499999999998" y="127.3299999999997" as="sourcePoint" />
            <mxPoint x="396.6300000000001" y="127.3299999999997" as="targetPoint" />
          </mxGeometry>
        </mxCell>
        <mxCell id="SP85iaM7-Yl6edaDid_6-77" value="" style="endArrow=none;html=1;rounded=0;exitX=1;exitY=0.5;exitDx=0;exitDy=0;entryX=0;entryY=0.5;entryDx=0;entryDy=0;" edge="1" parent="1" source="SP85iaM7-Yl6edaDid_6-70" target="SP85iaM7-Yl6edaDid_6-119">
          <mxGeometry width="50" height="50" relative="1" as="geometry">
            <mxPoint x="2236.3333333333335" y="2780.333333333333" as="sourcePoint" />
            <mxPoint x="2286.3333333333335" y="2730.333333333333" as="targetPoint" />
          </mxGeometry>
        </mxCell>
        <mxCell id="SP85iaM7-Yl6edaDid_6-78" value="" style="endArrow=none;html=1;rounded=0;entryX=0.495;entryY=1.022;entryDx=0;entryDy=0;exitX=0.5;exitY=0;exitDx=0;exitDy=0;entryPerimeter=0;" edge="1" parent="1" source="SP85iaM7-Yl6edaDid_6-89" target="SP85iaM7-Yl6edaDid_6-75">
          <mxGeometry width="50" height="50" relative="1" as="geometry">
            <mxPoint x="2188.8333333333335" y="2730.333333333333" as="sourcePoint" />
            <mxPoint x="2336.3333333333335" y="2671.333333333333" as="targetPoint" />
          </mxGeometry>
        </mxCell>
        <mxCell id="SP85iaM7-Yl6edaDid_6-79" value="" style="swimlane;startSize=0;" vertex="1" parent="1">
          <mxGeometry x="1885.33" y="2542" width="763.67" height="640" as="geometry" />
        </mxCell>
        <mxCell id="SP85iaM7-Yl6edaDid_6-80" value="kerusakan" style="swimlane;fontStyle=0;childLayout=stackLayout;horizontal=1;startSize=26;fillColor=none;horizontalStack=0;resizeParent=1;resizeParentMax=0;resizeLast=0;collapsible=1;marginBottom=0;" vertex="1" parent="SP85iaM7-Yl6edaDid_6-79">
          <mxGeometry x="276.5" y="310" width="178.5" height="230" as="geometry" />
        </mxCell>
        <mxCell id="SP85iaM7-Yl6edaDid_6-81" value="+ id_kerusakan: int(11)" style="text;strokeColor=none;fillColor=none;align=left;verticalAlign=top;spacingLeft=4;spacingRight=4;overflow=hidden;rotatable=0;points=[[0,0.5],[1,0.5]];portConstraint=eastwest;" vertex="1" parent="SP85iaM7-Yl6edaDid_6-80">
          <mxGeometry y="26" width="178.5" height="26" as="geometry" />
        </mxCell>
        <mxCell id="SP85iaM7-Yl6edaDid_6-82" value="+ kode_kerusakan:varchar(3)" style="text;strokeColor=none;fillColor=none;align=left;verticalAlign=top;spacingLeft=4;spacingRight=4;overflow=hidden;rotatable=0;points=[[0,0.5],[1,0.5]];portConstraint=eastwest;" vertex="1" parent="SP85iaM7-Yl6edaDid_6-80">
          <mxGeometry y="52" width="178.5" height="26" as="geometry" />
        </mxCell>
        <mxCell id="SP85iaM7-Yl6edaDid_6-83" value="+ kerusakan: varchar(100)" style="text;strokeColor=none;fillColor=none;align=left;verticalAlign=top;spacingLeft=4;spacingRight=4;overflow=hidden;rotatable=0;points=[[0,0.5],[1,0.5]];portConstraint=eastwest;" vertex="1" parent="SP85iaM7-Yl6edaDid_6-80">
          <mxGeometry y="78" width="178.5" height="26" as="geometry" />
        </mxCell>
        <mxCell id="SP85iaM7-Yl6edaDid_6-84" value="+ solusi: varchar(1000)" style="text;strokeColor=none;fillColor=none;align=left;verticalAlign=top;spacingLeft=4;spacingRight=4;overflow=hidden;rotatable=0;points=[[0,0.5],[1,0.5]];portConstraint=eastwest;" vertex="1" parent="SP85iaM7-Yl6edaDid_6-80">
          <mxGeometry y="104" width="178.5" height="36" as="geometry" />
        </mxCell>
        <mxCell id="SP85iaM7-Yl6edaDid_6-85" value="+ tambah data()" style="text;strokeColor=none;fillColor=none;align=left;verticalAlign=top;spacingLeft=4;spacingRight=4;overflow=hidden;rotatable=0;points=[[0,0.5],[1,0.5]];portConstraint=eastwest;" vertex="1" parent="SP85iaM7-Yl6edaDid_6-80">
          <mxGeometry y="140" width="178.5" height="30" as="geometry" />
        </mxCell>
        <mxCell id="SP85iaM7-Yl6edaDid_6-86" value="+ ubah data()" style="text;strokeColor=none;fillColor=none;align=left;verticalAlign=top;spacingLeft=4;spacingRight=4;overflow=hidden;rotatable=0;points=[[0,0.5],[1,0.5]];portConstraint=eastwest;" vertex="1" parent="SP85iaM7-Yl6edaDid_6-80">
          <mxGeometry y="170" width="178.5" height="30" as="geometry" />
        </mxCell>
        <mxCell id="SP85iaM7-Yl6edaDid_6-87" value="+ hapus data()" style="text;strokeColor=none;fillColor=none;align=left;verticalAlign=top;spacingLeft=4;spacingRight=4;overflow=hidden;rotatable=0;points=[[0,0.5],[1,0.5]];portConstraint=eastwest;" vertex="1" parent="SP85iaM7-Yl6edaDid_6-80">
          <mxGeometry y="200" width="178.5" height="30" as="geometry" />
        </mxCell>
        <mxCell id="SP85iaM7-Yl6edaDid_6-88" value="" style="endArrow=none;html=1;rounded=0;entryX=1;entryY=0.5;entryDx=0;entryDy=0;exitX=0;exitY=0.5;exitDx=0;exitDy=0;" edge="1" parent="SP85iaM7-Yl6edaDid_6-80">
          <mxGeometry width="50" height="50" relative="1" as="geometry">
            <mxPoint y="137" as="sourcePoint" />
            <mxPoint x="178.5" y="137" as="targetPoint" />
          </mxGeometry>
        </mxCell>
        <mxCell id="SP85iaM7-Yl6edaDid_6-89" value="rule" style="swimlane;fontStyle=0;childLayout=stackLayout;horizontal=1;startSize=26;fillColor=none;horizontalStack=0;resizeParent=1;resizeParentMax=0;resizeLast=0;collapsible=1;marginBottom=0;" vertex="1" parent="SP85iaM7-Yl6edaDid_6-79">
          <mxGeometry x="48" y="310" width="140" height="280" as="geometry" />
        </mxCell>
        <mxCell id="SP85iaM7-Yl6edaDid_6-90" value="+ id: int(11)" style="text;strokeColor=none;fillColor=none;align=left;verticalAlign=top;spacingLeft=4;spacingRight=4;overflow=hidden;rotatable=0;points=[[0,0.5],[1,0.5]];portConstraint=eastwest;" vertex="1" parent="SP85iaM7-Yl6edaDid_6-89">
          <mxGeometry y="26" width="140" height="26" as="geometry" />
        </mxCell>
        <mxCell id="SP85iaM7-Yl6edaDid_6-91" value="+ gejala_id: int(11)" style="text;strokeColor=none;fillColor=none;align=left;verticalAlign=top;spacingLeft=4;spacingRight=4;overflow=hidden;rotatable=0;points=[[0,0.5],[1,0.5]];portConstraint=eastwest;" vertex="1" parent="SP85iaM7-Yl6edaDid_6-89">
          <mxGeometry y="52" width="140" height="26" as="geometry" />
        </mxCell>
        <mxCell id="SP85iaM7-Yl6edaDid_6-92" value="+ kerusakan_id: int(11)" style="text;strokeColor=none;fillColor=none;align=left;verticalAlign=top;spacingLeft=4;spacingRight=4;overflow=hidden;rotatable=0;points=[[0,0.5],[1,0.5]];portConstraint=eastwest;" vertex="1" parent="SP85iaM7-Yl6edaDid_6-89">
          <mxGeometry y="78" width="140" height="26" as="geometry" />
        </mxCell>
        <mxCell id="SP85iaM7-Yl6edaDid_6-93" value="+ paranet: varchar(3)" style="text;strokeColor=none;fillColor=none;align=left;verticalAlign=top;spacingLeft=4;spacingRight=4;overflow=hidden;rotatable=0;points=[[0,0.5],[1,0.5]];portConstraint=eastwest;" vertex="1" parent="SP85iaM7-Yl6edaDid_6-89">
          <mxGeometry y="104" width="140" height="26" as="geometry" />
        </mxCell>
        <mxCell id="SP85iaM7-Yl6edaDid_6-94" value="+ ya: varchar(3)" style="text;strokeColor=none;fillColor=none;align=left;verticalAlign=top;spacingLeft=4;spacingRight=4;overflow=hidden;rotatable=0;points=[[0,0.5],[1,0.5]];portConstraint=eastwest;" vertex="1" parent="SP85iaM7-Yl6edaDid_6-89">
          <mxGeometry y="130" width="140" height="26" as="geometry" />
        </mxCell>
        <mxCell id="SP85iaM7-Yl6edaDid_6-95" value="+ tidak: varchar(3)" style="text;strokeColor=none;fillColor=none;align=left;verticalAlign=top;spacingLeft=4;spacingRight=4;overflow=hidden;rotatable=0;points=[[0,0.5],[1,0.5]];portConstraint=eastwest;" vertex="1" parent="SP85iaM7-Yl6edaDid_6-89">
          <mxGeometry y="156" width="140" height="34" as="geometry" />
        </mxCell>
        <mxCell id="SP85iaM7-Yl6edaDid_6-96" value="" style="endArrow=none;html=1;rounded=0;entryX=0.991;entryY=-0.022;entryDx=0;entryDy=0;exitX=0;exitY=0.5;exitDx=0;exitDy=0;entryPerimeter=0;" edge="1" parent="SP85iaM7-Yl6edaDid_6-89" target="SP85iaM7-Yl6edaDid_6-97">
          <mxGeometry width="50" height="50" relative="1" as="geometry">
            <mxPoint y="188.67000000000007" as="sourcePoint" />
            <mxPoint x="178.5" y="188.67000000000007" as="targetPoint" />
          </mxGeometry>
        </mxCell>
        <mxCell id="SP85iaM7-Yl6edaDid_6-97" value="+ tambah data()" style="text;strokeColor=none;fillColor=none;align=left;verticalAlign=top;spacingLeft=4;spacingRight=4;overflow=hidden;rotatable=0;points=[[0,0.5],[1,0.5]];portConstraint=eastwest;" vertex="1" parent="SP85iaM7-Yl6edaDid_6-89">
          <mxGeometry y="190" width="140" height="30" as="geometry" />
        </mxCell>
        <mxCell id="SP85iaM7-Yl6edaDid_6-98" value="+ hapus data()" style="text;strokeColor=none;fillColor=none;align=left;verticalAlign=top;spacingLeft=4;spacingRight=4;overflow=hidden;rotatable=0;points=[[0,0.5],[1,0.5]];portConstraint=eastwest;" vertex="1" parent="SP85iaM7-Yl6edaDid_6-89">
          <mxGeometry y="220" width="140" height="30" as="geometry" />
        </mxCell>
        <mxCell id="SP85iaM7-Yl6edaDid_6-99" value="+ ubah data()" style="text;strokeColor=none;fillColor=none;align=left;verticalAlign=top;spacingLeft=4;spacingRight=4;overflow=hidden;rotatable=0;points=[[0,0.5],[1,0.5]];portConstraint=eastwest;" vertex="1" parent="SP85iaM7-Yl6edaDid_6-89">
          <mxGeometry y="250" width="140" height="30" as="geometry" />
        </mxCell>
        <mxCell id="SP85iaM7-Yl6edaDid_6-100" value="" style="endArrow=none;html=1;rounded=0;entryX=0;entryY=0.5;entryDx=0;entryDy=0;exitX=1;exitY=0.5;exitDx=0;exitDy=0;" edge="1" parent="SP85iaM7-Yl6edaDid_6-79" source="SP85iaM7-Yl6edaDid_6-90" target="SP85iaM7-Yl6edaDid_6-81">
          <mxGeometry width="50" height="50" relative="1" as="geometry">
            <mxPoint x="190" y="224" as="sourcePoint" />
            <mxPoint x="128.27999999999997" y="134.33799999999997" as="targetPoint" />
          </mxGeometry>
        </mxCell>
        <mxCell id="SP85iaM7-Yl6edaDid_6-101" value="user" style="swimlane;fontStyle=0;childLayout=stackLayout;horizontal=1;startSize=26;fillColor=none;horizontalStack=0;resizeParent=1;resizeParentMax=0;resizeLast=0;collapsible=1;marginBottom=0;" vertex="1" parent="SP85iaM7-Yl6edaDid_6-79">
          <mxGeometry x="503.67" y="310" width="180" height="176" as="geometry" />
        </mxCell>
        <mxCell id="SP85iaM7-Yl6edaDid_6-102" value="+ id: int(11)" style="text;strokeColor=none;fillColor=none;align=left;verticalAlign=top;spacingLeft=4;spacingRight=4;overflow=hidden;rotatable=0;points=[[0,0.5],[1,0.5]];portConstraint=eastwest;" vertex="1" parent="SP85iaM7-Yl6edaDid_6-101">
          <mxGeometry y="26" width="180" height="26" as="geometry" />
        </mxCell>
        <mxCell id="SP85iaM7-Yl6edaDid_6-103" value="+ nama: varchar(50)" style="text;strokeColor=none;fillColor=none;align=left;verticalAlign=top;spacingLeft=4;spacingRight=4;overflow=hidden;rotatable=0;points=[[0,0.5],[1,0.5]];portConstraint=eastwest;" vertex="1" parent="SP85iaM7-Yl6edaDid_6-101">
          <mxGeometry y="52" width="180" height="26" as="geometry" />
        </mxCell>
        <mxCell id="SP85iaM7-Yl6edaDid_6-104" value="+ email: varchar(50)" style="text;strokeColor=none;fillColor=none;align=left;verticalAlign=top;spacingLeft=4;spacingRight=4;overflow=hidden;rotatable=0;points=[[0,0.5],[1,0.5]];portConstraint=eastwest;" vertex="1" parent="SP85iaM7-Yl6edaDid_6-101">
          <mxGeometry y="78" width="180" height="26" as="geometry" />
        </mxCell>
        <mxCell id="SP85iaM7-Yl6edaDid_6-105" value="+ kerusakan_kode: varchar(3)" style="text;strokeColor=none;fillColor=none;align=left;verticalAlign=top;spacingLeft=4;spacingRight=4;overflow=hidden;rotatable=0;points=[[0,0.5],[1,0.5]];portConstraint=eastwest;" vertex="1" parent="SP85iaM7-Yl6edaDid_6-101">
          <mxGeometry y="104" width="180" height="36" as="geometry" />
        </mxCell>
        <mxCell id="SP85iaM7-Yl6edaDid_6-106" value="+ hapus data()" style="text;strokeColor=none;fillColor=none;align=left;verticalAlign=top;spacingLeft=4;spacingRight=4;overflow=hidden;rotatable=0;points=[[0,0.5],[1,0.5]];portConstraint=eastwest;" vertex="1" parent="SP85iaM7-Yl6edaDid_6-101">
          <mxGeometry y="140" width="180" height="36" as="geometry" />
        </mxCell>
        <mxCell id="SP85iaM7-Yl6edaDid_6-107" value="" style="endArrow=none;html=1;rounded=0;entryX=1;entryY=0.5;entryDx=0;entryDy=0;exitX=0;exitY=0.5;exitDx=0;exitDy=0;" edge="1" parent="SP85iaM7-Yl6edaDid_6-101">
          <mxGeometry width="50" height="50" relative="1" as="geometry">
            <mxPoint y="137" as="sourcePoint" />
            <mxPoint x="180" y="137" as="targetPoint" />
          </mxGeometry>
        </mxCell>
        <mxCell id="SP85iaM7-Yl6edaDid_6-108" value="" style="endArrow=none;html=1;rounded=0;entryX=0.584;entryY=1.095;entryDx=0;entryDy=0;entryPerimeter=0;" edge="1" parent="SP85iaM7-Yl6edaDid_6-79" source="SP85iaM7-Yl6edaDid_6-106" target="SP85iaM7-Yl6edaDid_6-87">
          <mxGeometry width="50" height="50" relative="1" as="geometry">
            <mxPoint x="519.920067076579" y="481" as="sourcePoint" />
            <mxPoint x="400" y="69" as="targetPoint" />
            <Array as="points">
              <mxPoint x="593.6700000000001" y="570" />
              <mxPoint x="380.6700000000001" y="570" />
            </Array>
          </mxGeometry>
        </mxCell>
        <mxCell id="SP85iaM7-Yl6edaDid_6-109" value="admin" style="swimlane;fontStyle=0;childLayout=stackLayout;horizontal=1;startSize=26;fillColor=none;horizontalStack=0;resizeParent=1;resizeParentMax=0;resizeLast=0;collapsible=1;marginBottom=0;" vertex="1" parent="SP85iaM7-Yl6edaDid_6-79">
          <mxGeometry x="503.67" y="26" width="160" height="226" as="geometry" />
        </mxCell>
        <mxCell id="SP85iaM7-Yl6edaDid_6-110" value="+ id_user: int(11)" style="text;strokeColor=none;fillColor=none;align=left;verticalAlign=top;spacingLeft=4;spacingRight=4;overflow=hidden;rotatable=0;points=[[0,0.5],[1,0.5]];portConstraint=eastwest;" vertex="1" parent="SP85iaM7-Yl6edaDid_6-109">
          <mxGeometry y="26" width="160" height="26" as="geometry" />
        </mxCell>
        <mxCell id="SP85iaM7-Yl6edaDid_6-111" value="+ name: varchar (128)" style="text;strokeColor=none;fillColor=none;align=left;verticalAlign=top;spacingLeft=4;spacingRight=4;overflow=hidden;rotatable=0;points=[[0,0.5],[1,0.5]];portConstraint=eastwest;" vertex="1" parent="SP85iaM7-Yl6edaDid_6-109">
          <mxGeometry y="52" width="160" height="26" as="geometry" />
        </mxCell>
        <mxCell id="SP85iaM7-Yl6edaDid_6-112" value="+ email: varchar(128)" style="text;strokeColor=none;fillColor=none;align=left;verticalAlign=top;spacingLeft=4;spacingRight=4;overflow=hidden;rotatable=0;points=[[0,0.5],[1,0.5]];portConstraint=eastwest;" vertex="1" parent="SP85iaM7-Yl6edaDid_6-109">
          <mxGeometry y="78" width="160" height="26" as="geometry" />
        </mxCell>
        <mxCell id="SP85iaM7-Yl6edaDid_6-113" value="+ image: varchar(128)" style="text;strokeColor=none;fillColor=none;align=left;verticalAlign=top;spacingLeft=4;spacingRight=4;overflow=hidden;rotatable=0;points=[[0,0.5],[1,0.5]];portConstraint=eastwest;" vertex="1" parent="SP85iaM7-Yl6edaDid_6-109">
          <mxGeometry y="104" width="160" height="26" as="geometry" />
        </mxCell>
        <mxCell id="SP85iaM7-Yl6edaDid_6-114" value="+ password: varchar(128)" style="text;strokeColor=none;fillColor=none;align=left;verticalAlign=top;spacingLeft=4;spacingRight=4;overflow=hidden;rotatable=0;points=[[0,0.5],[1,0.5]];portConstraint=eastwest;" vertex="1" parent="SP85iaM7-Yl6edaDid_6-109">
          <mxGeometry y="130" width="160" height="26" as="geometry" />
        </mxCell>
        <mxCell id="SP85iaM7-Yl6edaDid_6-115" value="+ date_created: int(11)" style="text;strokeColor=none;fillColor=none;align=left;verticalAlign=top;spacingLeft=4;spacingRight=4;overflow=hidden;rotatable=0;points=[[0,0.5],[1,0.5]];portConstraint=eastwest;" vertex="1" parent="SP85iaM7-Yl6edaDid_6-109">
          <mxGeometry y="156" width="160" height="34" as="geometry" />
        </mxCell>
        <mxCell id="SP85iaM7-Yl6edaDid_6-116" value="+ ubah data data()" style="text;strokeColor=none;fillColor=none;align=left;verticalAlign=top;spacingLeft=4;spacingRight=4;overflow=hidden;rotatable=0;points=[[0,0.5],[1,0.5]];portConstraint=eastwest;" vertex="1" parent="SP85iaM7-Yl6edaDid_6-109">
          <mxGeometry y="190" width="160" height="36" as="geometry" />
        </mxCell>
        <mxCell id="SP85iaM7-Yl6edaDid_6-117" value="" style="endArrow=none;html=1;rounded=0;entryX=0.994;entryY=-0.065;entryDx=0;entryDy=0;exitX=0.019;exitY=-0.065;exitDx=0;exitDy=0;exitPerimeter=0;entryPerimeter=0;" edge="1" parent="SP85iaM7-Yl6edaDid_6-109" source="SP85iaM7-Yl6edaDid_6-116" target="SP85iaM7-Yl6edaDid_6-116">
          <mxGeometry width="50" height="50" relative="1" as="geometry">
            <mxPoint x="30" y="234" as="sourcePoint" />
            <mxPoint x="210" y="234" as="targetPoint" />
          </mxGeometry>
        </mxCell>
        <mxCell id="SP85iaM7-Yl6edaDid_6-118" value="relasi" style="swimlane;fontStyle=0;childLayout=stackLayout;horizontal=1;startSize=26;fillColor=none;horizontalStack=0;resizeParent=1;resizeParentMax=0;resizeLast=0;collapsible=1;marginBottom=0;" vertex="1" parent="SP85iaM7-Yl6edaDid_6-79">
          <mxGeometry x="295.75333333333356" y="28.333333333333258" width="140" height="210" as="geometry" />
        </mxCell>
        <mxCell id="SP85iaM7-Yl6edaDid_6-119" value="+ id: int(11)" style="text;strokeColor=none;fillColor=none;align=left;verticalAlign=top;spacingLeft=4;spacingRight=4;overflow=hidden;rotatable=0;points=[[0,0.5],[1,0.5]];portConstraint=eastwest;" vertex="1" parent="SP85iaM7-Yl6edaDid_6-118">
          <mxGeometry y="26" width="140" height="26" as="geometry" />
        </mxCell>
        <mxCell id="SP85iaM7-Yl6edaDid_6-120" value="+ kerusakan_id: int(11)" style="text;strokeColor=none;fillColor=none;align=left;verticalAlign=top;spacingLeft=4;spacingRight=4;overflow=hidden;rotatable=0;points=[[0,0.5],[1,0.5]];portConstraint=eastwest;" vertex="1" parent="SP85iaM7-Yl6edaDid_6-118">
          <mxGeometry y="52" width="140" height="26" as="geometry" />
        </mxCell>
        <mxCell id="SP85iaM7-Yl6edaDid_6-121" value="+ gejala_id: int(11)" style="text;strokeColor=none;fillColor=none;align=left;verticalAlign=top;spacingLeft=4;spacingRight=4;overflow=hidden;rotatable=0;points=[[0,0.5],[1,0.5]];portConstraint=eastwest;" vertex="1" parent="SP85iaM7-Yl6edaDid_6-118">
          <mxGeometry y="78" width="140" height="42" as="geometry" />
        </mxCell>
        <mxCell id="SP85iaM7-Yl6edaDid_6-122" value="+ tambah data()" style="text;strokeColor=none;fillColor=none;align=left;verticalAlign=top;spacingLeft=4;spacingRight=4;overflow=hidden;rotatable=0;points=[[0,0.5],[1,0.5]];portConstraint=eastwest;" vertex="1" parent="SP85iaM7-Yl6edaDid_6-118">
          <mxGeometry y="120" width="140" height="30" as="geometry" />
        </mxCell>
        <mxCell id="SP85iaM7-Yl6edaDid_6-123" value="+ ubah data()" style="text;strokeColor=none;fillColor=none;align=left;verticalAlign=top;spacingLeft=4;spacingRight=4;overflow=hidden;rotatable=0;points=[[0,0.5],[1,0.5]];portConstraint=eastwest;" vertex="1" parent="SP85iaM7-Yl6edaDid_6-118">
          <mxGeometry y="150" width="140" height="30" as="geometry" />
        </mxCell>
        <mxCell id="SP85iaM7-Yl6edaDid_6-124" value="+ hapus data()" style="text;strokeColor=none;fillColor=none;align=left;verticalAlign=top;spacingLeft=4;spacingRight=4;overflow=hidden;rotatable=0;points=[[0,0.5],[1,0.5]];portConstraint=eastwest;" vertex="1" parent="SP85iaM7-Yl6edaDid_6-118">
          <mxGeometry y="180" width="140" height="30" as="geometry" />
        </mxCell>
        <mxCell id="SP85iaM7-Yl6edaDid_6-125" value="" style="endArrow=none;html=1;rounded=0;entryX=1.002;entryY=0.968;entryDx=0;entryDy=0;exitX=-0.008;exitY=-0.089;exitDx=0;exitDy=0;exitPerimeter=0;entryPerimeter=0;" edge="1" parent="SP85iaM7-Yl6edaDid_6-118" source="SP85iaM7-Yl6edaDid_6-122" target="SP85iaM7-Yl6edaDid_6-121">
          <mxGeometry width="50" height="50" relative="1" as="geometry">
            <mxPoint x="14.199999999999818" y="127.3299999999997" as="sourcePoint" />
            <mxPoint x="148.8800000000001" y="127.3299999999997" as="targetPoint" />
          </mxGeometry>
        </mxCell>
        <mxCell id="SP85iaM7-Yl6edaDid_6-126" value="" style="endArrow=none;html=1;rounded=0;entryX=0.5;entryY=1;entryDx=0;entryDy=0;exitX=0.5;exitY=0;exitDx=0;exitDy=0;" edge="1" parent="SP85iaM7-Yl6edaDid_6-79" source="SP85iaM7-Yl6edaDid_6-80" target="SP85iaM7-Yl6edaDid_6-118">
          <mxGeometry width="50" height="50" relative="1" as="geometry">
            <mxPoint x="320.00333333333356" y="138.33333333333303" as="sourcePoint" />
            <mxPoint x="190.00333333333356" y="217.33333333333303" as="targetPoint" />
          </mxGeometry>
        </mxCell>
        <mxCell id="SP85iaM7-Yl6edaDid_6-127" value="m" style="text;html=1;align=center;verticalAlign=middle;resizable=0;points=[];autosize=1;strokeColor=none;fillColor=none;" vertex="1" parent="SP85iaM7-Yl6edaDid_6-79">
          <mxGeometry x="111.67000000000007" y="238.32999999999993" width="30" height="20" as="geometry" />
        </mxCell>
        <mxCell id="SP85iaM7-Yl6edaDid_6-128" value="1" style="text;html=1;align=center;verticalAlign=middle;resizable=0;points=[];autosize=1;strokeColor=none;fillColor=none;" vertex="1" parent="1">
          <mxGeometry x="2160" y="2592" width="20" height="20" as="geometry" />
        </mxCell>
        <mxCell id="SP85iaM7-Yl6edaDid_6-129" value="m" style="text;html=1;align=center;verticalAlign=middle;resizable=0;points=[];autosize=1;strokeColor=none;fillColor=none;" vertex="1" parent="1">
          <mxGeometry x="2072" y="2592" width="30" height="20" as="geometry" />
        </mxCell>
        <mxCell id="SP85iaM7-Yl6edaDid_6-130" value="1" style="text;html=1;align=center;verticalAlign=middle;resizable=0;points=[];autosize=1;strokeColor=none;fillColor=none;" vertex="1" parent="1">
          <mxGeometry x="2480" y="3032" width="20" height="20" as="geometry" />
        </mxCell>
        <mxCell id="SP85iaM7-Yl6edaDid_6-131" value="1" style="text;html=1;align=center;verticalAlign=middle;resizable=0;points=[];autosize=1;strokeColor=none;fillColor=none;" vertex="1" parent="1">
          <mxGeometry x="2240" y="3082" width="20" height="20" as="geometry" />
        </mxCell>
        <mxCell id="SP85iaM7-Yl6edaDid_6-132" value="1" style="text;html=1;align=center;verticalAlign=middle;resizable=0;points=[];autosize=1;strokeColor=none;fillColor=none;" vertex="1" parent="1">
          <mxGeometry x="2070" y="2872" width="20" height="20" as="geometry" />
        </mxCell>
        <mxCell id="SP85iaM7-Yl6edaDid_6-133" value="m" style="text;html=1;align=center;verticalAlign=middle;resizable=0;points=[];autosize=1;strokeColor=none;fillColor=none;" vertex="1" parent="1">
          <mxGeometry x="2135" y="2872" width="30" height="20" as="geometry" />
        </mxCell>
        <mxCell id="SP85iaM7-Yl6edaDid_6-134" value="1" style="text;html=1;align=center;verticalAlign=middle;resizable=0;points=[];autosize=1;strokeColor=none;fillColor=none;" vertex="1" parent="1">
          <mxGeometry x="2004" y="2832" width="20" height="20" as="geometry" />
        </mxCell>
        <mxCell id="SP85iaM7-Yl6edaDid_6-135" value="1" style="text;html=1;align=center;verticalAlign=middle;resizable=0;points=[];autosize=1;strokeColor=none;fillColor=none;" vertex="1" parent="1">
          <mxGeometry x="2231" y="2782" width="20" height="20" as="geometry" />
        </mxCell>
        <mxCell id="SP85iaM7-Yl6edaDid_6-136" value="m" style="text;html=1;align=center;verticalAlign=middle;resizable=0;points=[];autosize=1;strokeColor=none;fillColor=none;" vertex="1" parent="1">
          <mxGeometry x="2225" y="2832" width="30" height="20" as="geometry" />
        </mxCell>
      </root>
    </mxGraphModel>
  </diagram>
  <diagram name="Page-2" id="xBPkXG6Mq32o6h_xYTcn">
    <mxGraphModel dx="3472" dy="1928" grid="1" gridSize="10" guides="1" tooltips="1" connect="1" arrows="1" fold="1" page="1" pageScale="1" pageWidth="827" pageHeight="1169" math="0" shadow="0">
      <root>
        <mxCell id="FdmRWvrHi44ohS71QSnJ-0" />
        <mxCell id="FdmRWvrHi44ohS71QSnJ-1" parent="FdmRWvrHi44ohS71QSnJ-0" />
      </root>
    </mxGraphModel>
  </diagram>
  <diagram name="Page-3" id="bhFHZzralPH1ajjmbmev">
    <mxGraphModel dx="3472" dy="1928" grid="1" gridSize="10" guides="1" tooltips="1" connect="1" arrows="1" fold="1" page="1" pageScale="1" pageWidth="827" pageHeight="1169" math="0" shadow="0">
      <root>
        <mxCell id="V76UKjKOv8cLBKRRRNTL-0" />
        <mxCell id="V76UKjKOv8cLBKRRRNTL-1" parent="V76UKjKOv8cLBKRRRNTL-0" />
      </root>
    </mxGraphModel>
  </diagram>
  <diagram name="Page-1" id="WNulvXkMp-bI74rWkVr8">
    <mxGraphModel dx="307" dy="-457" grid="1" gridSize="10" guides="1" tooltips="1" connect="1" arrows="1" fold="1" page="1" pageScale="1" pageWidth="850" pageHeight="1100" math="0" shadow="0">
      <root>
        <mxCell id="0" />
        <mxCell id="1" parent="0" />
        <mxCell id="v2-fmsgGhTJ59re-nVzk-247" value="gejala" style="swimlane;fontStyle=0;childLayout=stackLayout;horizontal=1;startSize=26;fillColor=none;horizontalStack=0;resizeParent=1;resizeParentMax=0;resizeLast=0;collapsible=1;marginBottom=0;" vertex="1" parent="1">
          <mxGeometry x="1594.3333333333335" y="1938.3333333333333" width="140" height="210" as="geometry" />
        </mxCell>
        <mxCell id="v2-fmsgGhTJ59re-nVzk-248" value="+ id_gejala: int(11)" style="text;strokeColor=none;fillColor=none;align=left;verticalAlign=top;spacingLeft=4;spacingRight=4;overflow=hidden;rotatable=0;points=[[0,0.5],[1,0.5]];portConstraint=eastwest;" vertex="1" parent="v2-fmsgGhTJ59re-nVzk-247">
          <mxGeometry y="26" width="140" height="26" as="geometry" />
        </mxCell>
        <mxCell id="v2-fmsgGhTJ59re-nVzk-249" value="+ kode_gejala: int(3)" style="text;strokeColor=none;fillColor=none;align=left;verticalAlign=top;spacingLeft=4;spacingRight=4;overflow=hidden;rotatable=0;points=[[0,0.5],[1,0.5]];portConstraint=eastwest;" vertex="1" parent="v2-fmsgGhTJ59re-nVzk-247">
          <mxGeometry y="52" width="140" height="26" as="geometry" />
        </mxCell>
        <mxCell id="v2-fmsgGhTJ59re-nVzk-250" value="+ gejala: varchar(100)" style="text;strokeColor=none;fillColor=none;align=left;verticalAlign=top;spacingLeft=4;spacingRight=4;overflow=hidden;rotatable=0;points=[[0,0.5],[1,0.5]];portConstraint=eastwest;" vertex="1" parent="v2-fmsgGhTJ59re-nVzk-247">
          <mxGeometry y="78" width="140" height="42" as="geometry" />
        </mxCell>
        <mxCell id="v2-fmsgGhTJ59re-nVzk-317" value="+ tambah data()" style="text;strokeColor=none;fillColor=none;align=left;verticalAlign=top;spacingLeft=4;spacingRight=4;overflow=hidden;rotatable=0;points=[[0,0.5],[1,0.5]];portConstraint=eastwest;" vertex="1" parent="v2-fmsgGhTJ59re-nVzk-247">
          <mxGeometry y="120" width="140" height="30" as="geometry" />
        </mxCell>
        <mxCell id="v2-fmsgGhTJ59re-nVzk-318" value="+ ubah data()" style="text;strokeColor=none;fillColor=none;align=left;verticalAlign=top;spacingLeft=4;spacingRight=4;overflow=hidden;rotatable=0;points=[[0,0.5],[1,0.5]];portConstraint=eastwest;" vertex="1" parent="v2-fmsgGhTJ59re-nVzk-247">
          <mxGeometry y="150" width="140" height="30" as="geometry" />
        </mxCell>
        <mxCell id="v2-fmsgGhTJ59re-nVzk-319" value="+ hapus data()" style="text;strokeColor=none;fillColor=none;align=left;verticalAlign=top;spacingLeft=4;spacingRight=4;overflow=hidden;rotatable=0;points=[[0,0.5],[1,0.5]];portConstraint=eastwest;" vertex="1" parent="v2-fmsgGhTJ59re-nVzk-247">
          <mxGeometry y="180" width="140" height="30" as="geometry" />
        </mxCell>
        <mxCell id="v2-fmsgGhTJ59re-nVzk-320" value="" style="endArrow=none;html=1;rounded=0;entryX=1.01;entryY=0.905;entryDx=0;entryDy=0;exitX=0.01;exitY=0.905;exitDx=0;exitDy=0;exitPerimeter=0;entryPerimeter=0;" edge="1" parent="v2-fmsgGhTJ59re-nVzk-247" source="v2-fmsgGhTJ59re-nVzk-250" target="v2-fmsgGhTJ59re-nVzk-250">
          <mxGeometry width="50" height="50" relative="1" as="geometry">
            <mxPoint x="261.9499999999998" y="127.3299999999997" as="sourcePoint" />
            <mxPoint x="396.6300000000001" y="127.3299999999997" as="targetPoint" />
          </mxGeometry>
        </mxCell>
        <mxCell id="v2-fmsgGhTJ59re-nVzk-255" value="" style="endArrow=none;html=1;rounded=0;exitX=1;exitY=0.5;exitDx=0;exitDy=0;entryX=0;entryY=0.5;entryDx=0;entryDy=0;" edge="1" parent="1" source="v2-fmsgGhTJ59re-nVzk-248" target="v2-fmsgGhTJ59re-nVzk-252">
          <mxGeometry width="50" height="50" relative="1" as="geometry">
            <mxPoint x="1896.3333333333335" y="2148.333333333333" as="sourcePoint" />
            <mxPoint x="1946.3333333333335" y="2098.333333333333" as="targetPoint" />
          </mxGeometry>
        </mxCell>
        <mxCell id="v2-fmsgGhTJ59re-nVzk-256" value="" style="endArrow=none;html=1;rounded=0;entryX=0.495;entryY=1.022;entryDx=0;entryDy=0;exitX=0.5;exitY=0;exitDx=0;exitDy=0;entryPerimeter=0;" edge="1" parent="1" source="v2-fmsgGhTJ59re-nVzk-263" target="v2-fmsgGhTJ59re-nVzk-319">
          <mxGeometry width="50" height="50" relative="1" as="geometry">
            <mxPoint x="1848.8333333333335" y="2098.333333333333" as="sourcePoint" />
            <mxPoint x="1996.3333333333335" y="2039.333333333333" as="targetPoint" />
          </mxGeometry>
        </mxCell>
        <mxCell id="v2-fmsgGhTJ59re-nVzk-257" value="" style="swimlane;startSize=0;" vertex="1" parent="1">
          <mxGeometry x="1545.33" y="1910" width="763.67" height="640" as="geometry" />
        </mxCell>
        <mxCell id="v2-fmsgGhTJ59re-nVzk-258" value="kerusakan" style="swimlane;fontStyle=0;childLayout=stackLayout;horizontal=1;startSize=26;fillColor=none;horizontalStack=0;resizeParent=1;resizeParentMax=0;resizeLast=0;collapsible=1;marginBottom=0;" vertex="1" parent="v2-fmsgGhTJ59re-nVzk-257">
          <mxGeometry x="276.5" y="310" width="178.5" height="230" as="geometry" />
        </mxCell>
        <mxCell id="v2-fmsgGhTJ59re-nVzk-259" value="+ id_kerusakan: int(11)" style="text;strokeColor=none;fillColor=none;align=left;verticalAlign=top;spacingLeft=4;spacingRight=4;overflow=hidden;rotatable=0;points=[[0,0.5],[1,0.5]];portConstraint=eastwest;" vertex="1" parent="v2-fmsgGhTJ59re-nVzk-258">
          <mxGeometry y="26" width="178.5" height="26" as="geometry" />
        </mxCell>
        <mxCell id="v2-fmsgGhTJ59re-nVzk-260" value="+ kode_kerusakan:varchar(3)" style="text;strokeColor=none;fillColor=none;align=left;verticalAlign=top;spacingLeft=4;spacingRight=4;overflow=hidden;rotatable=0;points=[[0,0.5],[1,0.5]];portConstraint=eastwest;" vertex="1" parent="v2-fmsgGhTJ59re-nVzk-258">
          <mxGeometry y="52" width="178.5" height="26" as="geometry" />
        </mxCell>
        <mxCell id="v2-fmsgGhTJ59re-nVzk-261" value="+ kerusakan: varchar(100)" style="text;strokeColor=none;fillColor=none;align=left;verticalAlign=top;spacingLeft=4;spacingRight=4;overflow=hidden;rotatable=0;points=[[0,0.5],[1,0.5]];portConstraint=eastwest;" vertex="1" parent="v2-fmsgGhTJ59re-nVzk-258">
          <mxGeometry y="78" width="178.5" height="26" as="geometry" />
        </mxCell>
        <mxCell id="v2-fmsgGhTJ59re-nVzk-262" value="+ solusi: varchar(1000)" style="text;strokeColor=none;fillColor=none;align=left;verticalAlign=top;spacingLeft=4;spacingRight=4;overflow=hidden;rotatable=0;points=[[0,0.5],[1,0.5]];portConstraint=eastwest;" vertex="1" parent="v2-fmsgGhTJ59re-nVzk-258">
          <mxGeometry y="104" width="178.5" height="36" as="geometry" />
        </mxCell>
        <mxCell id="v2-fmsgGhTJ59re-nVzk-303" value="+ tambah data()" style="text;strokeColor=none;fillColor=none;align=left;verticalAlign=top;spacingLeft=4;spacingRight=4;overflow=hidden;rotatable=0;points=[[0,0.5],[1,0.5]];portConstraint=eastwest;" vertex="1" parent="v2-fmsgGhTJ59re-nVzk-258">
          <mxGeometry y="140" width="178.5" height="30" as="geometry" />
        </mxCell>
        <mxCell id="v2-fmsgGhTJ59re-nVzk-304" value="+ ubah data()" style="text;strokeColor=none;fillColor=none;align=left;verticalAlign=top;spacingLeft=4;spacingRight=4;overflow=hidden;rotatable=0;points=[[0,0.5],[1,0.5]];portConstraint=eastwest;" vertex="1" parent="v2-fmsgGhTJ59re-nVzk-258">
          <mxGeometry y="170" width="178.5" height="30" as="geometry" />
        </mxCell>
        <mxCell id="v2-fmsgGhTJ59re-nVzk-305" value="+ hapus data()" style="text;strokeColor=none;fillColor=none;align=left;verticalAlign=top;spacingLeft=4;spacingRight=4;overflow=hidden;rotatable=0;points=[[0,0.5],[1,0.5]];portConstraint=eastwest;" vertex="1" parent="v2-fmsgGhTJ59re-nVzk-258">
          <mxGeometry y="200" width="178.5" height="30" as="geometry" />
        </mxCell>
        <mxCell id="v2-fmsgGhTJ59re-nVzk-306" value="" style="endArrow=none;html=1;rounded=0;entryX=1;entryY=0.5;entryDx=0;entryDy=0;exitX=0;exitY=0.5;exitDx=0;exitDy=0;" edge="1" parent="v2-fmsgGhTJ59re-nVzk-258">
          <mxGeometry width="50" height="50" relative="1" as="geometry">
            <mxPoint y="137" as="sourcePoint" />
            <mxPoint x="178.5" y="137" as="targetPoint" />
          </mxGeometry>
        </mxCell>
        <mxCell id="v2-fmsgGhTJ59re-nVzk-263" value="rule" style="swimlane;fontStyle=0;childLayout=stackLayout;horizontal=1;startSize=26;fillColor=none;horizontalStack=0;resizeParent=1;resizeParentMax=0;resizeLast=0;collapsible=1;marginBottom=0;" vertex="1" parent="v2-fmsgGhTJ59re-nVzk-257">
          <mxGeometry x="48" y="310" width="140" height="280" as="geometry" />
        </mxCell>
        <mxCell id="v2-fmsgGhTJ59re-nVzk-264" value="+ id: int(11)" style="text;strokeColor=none;fillColor=none;align=left;verticalAlign=top;spacingLeft=4;spacingRight=4;overflow=hidden;rotatable=0;points=[[0,0.5],[1,0.5]];portConstraint=eastwest;" vertex="1" parent="v2-fmsgGhTJ59re-nVzk-263">
          <mxGeometry y="26" width="140" height="26" as="geometry" />
        </mxCell>
        <mxCell id="v2-fmsgGhTJ59re-nVzk-265" value="+ gejala_id: int(11)" style="text;strokeColor=none;fillColor=none;align=left;verticalAlign=top;spacingLeft=4;spacingRight=4;overflow=hidden;rotatable=0;points=[[0,0.5],[1,0.5]];portConstraint=eastwest;" vertex="1" parent="v2-fmsgGhTJ59re-nVzk-263">
          <mxGeometry y="52" width="140" height="26" as="geometry" />
        </mxCell>
        <mxCell id="v2-fmsgGhTJ59re-nVzk-266" value="+ kerusakan_id: int(11)" style="text;strokeColor=none;fillColor=none;align=left;verticalAlign=top;spacingLeft=4;spacingRight=4;overflow=hidden;rotatable=0;points=[[0,0.5],[1,0.5]];portConstraint=eastwest;" vertex="1" parent="v2-fmsgGhTJ59re-nVzk-263">
          <mxGeometry y="78" width="140" height="26" as="geometry" />
        </mxCell>
        <mxCell id="v2-fmsgGhTJ59re-nVzk-267" value="+ paranet: varchar(3)" style="text;strokeColor=none;fillColor=none;align=left;verticalAlign=top;spacingLeft=4;spacingRight=4;overflow=hidden;rotatable=0;points=[[0,0.5],[1,0.5]];portConstraint=eastwest;" vertex="1" parent="v2-fmsgGhTJ59re-nVzk-263">
          <mxGeometry y="104" width="140" height="26" as="geometry" />
        </mxCell>
        <mxCell id="v2-fmsgGhTJ59re-nVzk-268" value="+ ya: varchar(3)" style="text;strokeColor=none;fillColor=none;align=left;verticalAlign=top;spacingLeft=4;spacingRight=4;overflow=hidden;rotatable=0;points=[[0,0.5],[1,0.5]];portConstraint=eastwest;" vertex="1" parent="v2-fmsgGhTJ59re-nVzk-263">
          <mxGeometry y="130" width="140" height="26" as="geometry" />
        </mxCell>
        <mxCell id="v2-fmsgGhTJ59re-nVzk-269" value="+ tidak: varchar(3)" style="text;strokeColor=none;fillColor=none;align=left;verticalAlign=top;spacingLeft=4;spacingRight=4;overflow=hidden;rotatable=0;points=[[0,0.5],[1,0.5]];portConstraint=eastwest;" vertex="1" parent="v2-fmsgGhTJ59re-nVzk-263">
          <mxGeometry y="156" width="140" height="34" as="geometry" />
        </mxCell>
        <mxCell id="v2-fmsgGhTJ59re-nVzk-310" value="" style="endArrow=none;html=1;rounded=0;entryX=0.991;entryY=-0.022;entryDx=0;entryDy=0;exitX=0;exitY=0.5;exitDx=0;exitDy=0;entryPerimeter=0;" edge="1" parent="v2-fmsgGhTJ59re-nVzk-263" target="v2-fmsgGhTJ59re-nVzk-307">
          <mxGeometry width="50" height="50" relative="1" as="geometry">
            <mxPoint y="188.67000000000007" as="sourcePoint" />
            <mxPoint x="178.5" y="188.67000000000007" as="targetPoint" />
          </mxGeometry>
        </mxCell>
        <mxCell id="v2-fmsgGhTJ59re-nVzk-307" value="+ tambah data()" style="text;strokeColor=none;fillColor=none;align=left;verticalAlign=top;spacingLeft=4;spacingRight=4;overflow=hidden;rotatable=0;points=[[0,0.5],[1,0.5]];portConstraint=eastwest;" vertex="1" parent="v2-fmsgGhTJ59re-nVzk-263">
          <mxGeometry y="190" width="140" height="30" as="geometry" />
        </mxCell>
        <mxCell id="v2-fmsgGhTJ59re-nVzk-309" value="+ hapus data()" style="text;strokeColor=none;fillColor=none;align=left;verticalAlign=top;spacingLeft=4;spacingRight=4;overflow=hidden;rotatable=0;points=[[0,0.5],[1,0.5]];portConstraint=eastwest;" vertex="1" parent="v2-fmsgGhTJ59re-nVzk-263">
          <mxGeometry y="220" width="140" height="30" as="geometry" />
        </mxCell>
        <mxCell id="v2-fmsgGhTJ59re-nVzk-308" value="+ ubah data()" style="text;strokeColor=none;fillColor=none;align=left;verticalAlign=top;spacingLeft=4;spacingRight=4;overflow=hidden;rotatable=0;points=[[0,0.5],[1,0.5]];portConstraint=eastwest;" vertex="1" parent="v2-fmsgGhTJ59re-nVzk-263">
          <mxGeometry y="250" width="140" height="30" as="geometry" />
        </mxCell>
        <mxCell id="v2-fmsgGhTJ59re-nVzk-270" value="" style="endArrow=none;html=1;rounded=0;entryX=0;entryY=0.5;entryDx=0;entryDy=0;exitX=1;exitY=0.5;exitDx=0;exitDy=0;" edge="1" parent="v2-fmsgGhTJ59re-nVzk-257" target="v2-fmsgGhTJ59re-nVzk-259" source="v2-fmsgGhTJ59re-nVzk-264">
          <mxGeometry width="50" height="50" relative="1" as="geometry">
            <mxPoint x="190" y="224" as="sourcePoint" />
            <mxPoint x="128.27999999999997" y="134.33799999999997" as="targetPoint" />
          </mxGeometry>
        </mxCell>
        <mxCell id="v2-fmsgGhTJ59re-nVzk-271" value="user" style="swimlane;fontStyle=0;childLayout=stackLayout;horizontal=1;startSize=26;fillColor=none;horizontalStack=0;resizeParent=1;resizeParentMax=0;resizeLast=0;collapsible=1;marginBottom=0;" vertex="1" parent="v2-fmsgGhTJ59re-nVzk-257">
          <mxGeometry x="503.67" y="310" width="180" height="176" as="geometry" />
        </mxCell>
        <mxCell id="v2-fmsgGhTJ59re-nVzk-272" value="+ id: int(11)" style="text;strokeColor=none;fillColor=none;align=left;verticalAlign=top;spacingLeft=4;spacingRight=4;overflow=hidden;rotatable=0;points=[[0,0.5],[1,0.5]];portConstraint=eastwest;" vertex="1" parent="v2-fmsgGhTJ59re-nVzk-271">
          <mxGeometry y="26" width="180" height="26" as="geometry" />
        </mxCell>
        <mxCell id="v2-fmsgGhTJ59re-nVzk-273" value="+ nama: varchar(50)" style="text;strokeColor=none;fillColor=none;align=left;verticalAlign=top;spacingLeft=4;spacingRight=4;overflow=hidden;rotatable=0;points=[[0,0.5],[1,0.5]];portConstraint=eastwest;" vertex="1" parent="v2-fmsgGhTJ59re-nVzk-271">
          <mxGeometry y="52" width="180" height="26" as="geometry" />
        </mxCell>
        <mxCell id="v2-fmsgGhTJ59re-nVzk-274" value="+ email: varchar(50)" style="text;strokeColor=none;fillColor=none;align=left;verticalAlign=top;spacingLeft=4;spacingRight=4;overflow=hidden;rotatable=0;points=[[0,0.5],[1,0.5]];portConstraint=eastwest;" vertex="1" parent="v2-fmsgGhTJ59re-nVzk-271">
          <mxGeometry y="78" width="180" height="26" as="geometry" />
        </mxCell>
        <mxCell id="v2-fmsgGhTJ59re-nVzk-298" value="+ kerusakan_kode: varchar(3)" style="text;strokeColor=none;fillColor=none;align=left;verticalAlign=top;spacingLeft=4;spacingRight=4;overflow=hidden;rotatable=0;points=[[0,0.5],[1,0.5]];portConstraint=eastwest;" vertex="1" parent="v2-fmsgGhTJ59re-nVzk-271">
          <mxGeometry y="104" width="180" height="36" as="geometry" />
        </mxCell>
        <mxCell id="v2-fmsgGhTJ59re-nVzk-275" value="+ hapus data()" style="text;strokeColor=none;fillColor=none;align=left;verticalAlign=top;spacingLeft=4;spacingRight=4;overflow=hidden;rotatable=0;points=[[0,0.5],[1,0.5]];portConstraint=eastwest;" vertex="1" parent="v2-fmsgGhTJ59re-nVzk-271">
          <mxGeometry y="140" width="180" height="36" as="geometry" />
        </mxCell>
        <mxCell id="v2-fmsgGhTJ59re-nVzk-301" value="" style="endArrow=none;html=1;rounded=0;entryX=1;entryY=0.5;entryDx=0;entryDy=0;exitX=0;exitY=0.5;exitDx=0;exitDy=0;" edge="1" parent="v2-fmsgGhTJ59re-nVzk-271">
          <mxGeometry width="50" height="50" relative="1" as="geometry">
            <mxPoint y="137" as="sourcePoint" />
            <mxPoint x="180" y="137" as="targetPoint" />
          </mxGeometry>
        </mxCell>
        <mxCell id="v2-fmsgGhTJ59re-nVzk-276" value="" style="endArrow=none;html=1;rounded=0;entryX=0.584;entryY=1.095;entryDx=0;entryDy=0;entryPerimeter=0;" edge="1" parent="v2-fmsgGhTJ59re-nVzk-257" source="v2-fmsgGhTJ59re-nVzk-275" target="v2-fmsgGhTJ59re-nVzk-305">
          <mxGeometry width="50" height="50" relative="1" as="geometry">
            <mxPoint x="519.920067076579" y="481" as="sourcePoint" />
            <mxPoint x="400" y="69" as="targetPoint" />
            <Array as="points">
              <mxPoint x="593.6700000000001" y="570" />
              <mxPoint x="380.6700000000001" y="570" />
            </Array>
          </mxGeometry>
        </mxCell>
        <mxCell id="v2-fmsgGhTJ59re-nVzk-277" value="admin" style="swimlane;fontStyle=0;childLayout=stackLayout;horizontal=1;startSize=26;fillColor=none;horizontalStack=0;resizeParent=1;resizeParentMax=0;resizeLast=0;collapsible=1;marginBottom=0;" vertex="1" parent="v2-fmsgGhTJ59re-nVzk-257">
          <mxGeometry x="503.67" y="26" width="160" height="226" as="geometry" />
        </mxCell>
        <mxCell id="v2-fmsgGhTJ59re-nVzk-278" value="+ id_user: int(11)" style="text;strokeColor=none;fillColor=none;align=left;verticalAlign=top;spacingLeft=4;spacingRight=4;overflow=hidden;rotatable=0;points=[[0,0.5],[1,0.5]];portConstraint=eastwest;" vertex="1" parent="v2-fmsgGhTJ59re-nVzk-277">
          <mxGeometry y="26" width="160" height="26" as="geometry" />
        </mxCell>
        <mxCell id="v2-fmsgGhTJ59re-nVzk-279" value="+ name: varchar (128)" style="text;strokeColor=none;fillColor=none;align=left;verticalAlign=top;spacingLeft=4;spacingRight=4;overflow=hidden;rotatable=0;points=[[0,0.5],[1,0.5]];portConstraint=eastwest;" vertex="1" parent="v2-fmsgGhTJ59re-nVzk-277">
          <mxGeometry y="52" width="160" height="26" as="geometry" />
        </mxCell>
        <mxCell id="v2-fmsgGhTJ59re-nVzk-280" value="+ email: varchar(128)" style="text;strokeColor=none;fillColor=none;align=left;verticalAlign=top;spacingLeft=4;spacingRight=4;overflow=hidden;rotatable=0;points=[[0,0.5],[1,0.5]];portConstraint=eastwest;" vertex="1" parent="v2-fmsgGhTJ59re-nVzk-277">
          <mxGeometry y="78" width="160" height="26" as="geometry" />
        </mxCell>
        <mxCell id="v2-fmsgGhTJ59re-nVzk-281" value="+ image: varchar(128)" style="text;strokeColor=none;fillColor=none;align=left;verticalAlign=top;spacingLeft=4;spacingRight=4;overflow=hidden;rotatable=0;points=[[0,0.5],[1,0.5]];portConstraint=eastwest;" vertex="1" parent="v2-fmsgGhTJ59re-nVzk-277">
          <mxGeometry y="104" width="160" height="26" as="geometry" />
        </mxCell>
        <mxCell id="v2-fmsgGhTJ59re-nVzk-282" value="+ password: varchar(128)" style="text;strokeColor=none;fillColor=none;align=left;verticalAlign=top;spacingLeft=4;spacingRight=4;overflow=hidden;rotatable=0;points=[[0,0.5],[1,0.5]];portConstraint=eastwest;" vertex="1" parent="v2-fmsgGhTJ59re-nVzk-277">
          <mxGeometry y="130" width="160" height="26" as="geometry" />
        </mxCell>
        <mxCell id="v2-fmsgGhTJ59re-nVzk-283" value="+ date_created: int(11)" style="text;strokeColor=none;fillColor=none;align=left;verticalAlign=top;spacingLeft=4;spacingRight=4;overflow=hidden;rotatable=0;points=[[0,0.5],[1,0.5]];portConstraint=eastwest;" vertex="1" parent="v2-fmsgGhTJ59re-nVzk-277">
          <mxGeometry y="156" width="160" height="34" as="geometry" />
        </mxCell>
        <mxCell id="v2-fmsgGhTJ59re-nVzk-311" value="+ ubah data data()" style="text;strokeColor=none;fillColor=none;align=left;verticalAlign=top;spacingLeft=4;spacingRight=4;overflow=hidden;rotatable=0;points=[[0,0.5],[1,0.5]];portConstraint=eastwest;" vertex="1" parent="v2-fmsgGhTJ59re-nVzk-277">
          <mxGeometry y="190" width="160" height="36" as="geometry" />
        </mxCell>
        <mxCell id="v2-fmsgGhTJ59re-nVzk-312" value="" style="endArrow=none;html=1;rounded=0;entryX=0.994;entryY=-0.065;entryDx=0;entryDy=0;exitX=0.019;exitY=-0.065;exitDx=0;exitDy=0;exitPerimeter=0;entryPerimeter=0;" edge="1" parent="v2-fmsgGhTJ59re-nVzk-277" source="v2-fmsgGhTJ59re-nVzk-311" target="v2-fmsgGhTJ59re-nVzk-311">
          <mxGeometry width="50" height="50" relative="1" as="geometry">
            <mxPoint x="30" y="234" as="sourcePoint" />
            <mxPoint x="210" y="234" as="targetPoint" />
          </mxGeometry>
        </mxCell>
        <mxCell id="v2-fmsgGhTJ59re-nVzk-251" value="relasi" style="swimlane;fontStyle=0;childLayout=stackLayout;horizontal=1;startSize=26;fillColor=none;horizontalStack=0;resizeParent=1;resizeParentMax=0;resizeLast=0;collapsible=1;marginBottom=0;" vertex="1" parent="v2-fmsgGhTJ59re-nVzk-257">
          <mxGeometry x="295.75333333333356" y="28.333333333333258" width="140" height="210" as="geometry" />
        </mxCell>
        <mxCell id="v2-fmsgGhTJ59re-nVzk-252" value="+ id: int(11)" style="text;strokeColor=none;fillColor=none;align=left;verticalAlign=top;spacingLeft=4;spacingRight=4;overflow=hidden;rotatable=0;points=[[0,0.5],[1,0.5]];portConstraint=eastwest;" vertex="1" parent="v2-fmsgGhTJ59re-nVzk-251">
          <mxGeometry y="26" width="140" height="26" as="geometry" />
        </mxCell>
        <mxCell id="v2-fmsgGhTJ59re-nVzk-253" value="+ kerusakan_id: int(11)" style="text;strokeColor=none;fillColor=none;align=left;verticalAlign=top;spacingLeft=4;spacingRight=4;overflow=hidden;rotatable=0;points=[[0,0.5],[1,0.5]];portConstraint=eastwest;" vertex="1" parent="v2-fmsgGhTJ59re-nVzk-251">
          <mxGeometry y="52" width="140" height="26" as="geometry" />
        </mxCell>
        <mxCell id="v2-fmsgGhTJ59re-nVzk-254" value="+ gejala_id: int(11)" style="text;strokeColor=none;fillColor=none;align=left;verticalAlign=top;spacingLeft=4;spacingRight=4;overflow=hidden;rotatable=0;points=[[0,0.5],[1,0.5]];portConstraint=eastwest;" vertex="1" parent="v2-fmsgGhTJ59re-nVzk-251">
          <mxGeometry y="78" width="140" height="42" as="geometry" />
        </mxCell>
        <mxCell id="v2-fmsgGhTJ59re-nVzk-315" value="+ tambah data()" style="text;strokeColor=none;fillColor=none;align=left;verticalAlign=top;spacingLeft=4;spacingRight=4;overflow=hidden;rotatable=0;points=[[0,0.5],[1,0.5]];portConstraint=eastwest;" vertex="1" parent="v2-fmsgGhTJ59re-nVzk-251">
          <mxGeometry y="120" width="140" height="30" as="geometry" />
        </mxCell>
        <mxCell id="v2-fmsgGhTJ59re-nVzk-314" value="+ ubah data()" style="text;strokeColor=none;fillColor=none;align=left;verticalAlign=top;spacingLeft=4;spacingRight=4;overflow=hidden;rotatable=0;points=[[0,0.5],[1,0.5]];portConstraint=eastwest;" vertex="1" parent="v2-fmsgGhTJ59re-nVzk-251">
          <mxGeometry y="150" width="140" height="30" as="geometry" />
        </mxCell>
        <mxCell id="v2-fmsgGhTJ59re-nVzk-313" value="+ hapus data()" style="text;strokeColor=none;fillColor=none;align=left;verticalAlign=top;spacingLeft=4;spacingRight=4;overflow=hidden;rotatable=0;points=[[0,0.5],[1,0.5]];portConstraint=eastwest;" vertex="1" parent="v2-fmsgGhTJ59re-nVzk-251">
          <mxGeometry y="180" width="140" height="30" as="geometry" />
        </mxCell>
        <mxCell id="v2-fmsgGhTJ59re-nVzk-321" value="" style="endArrow=none;html=1;rounded=0;entryX=1.002;entryY=0.968;entryDx=0;entryDy=0;exitX=-0.008;exitY=-0.089;exitDx=0;exitDy=0;exitPerimeter=0;entryPerimeter=0;" edge="1" parent="v2-fmsgGhTJ59re-nVzk-251" source="v2-fmsgGhTJ59re-nVzk-315" target="v2-fmsgGhTJ59re-nVzk-254">
          <mxGeometry width="50" height="50" relative="1" as="geometry">
            <mxPoint x="14.199999999999818" y="127.3299999999997" as="sourcePoint" />
            <mxPoint x="148.8800000000001" y="127.3299999999997" as="targetPoint" />
          </mxGeometry>
        </mxCell>
        <mxCell id="v2-fmsgGhTJ59re-nVzk-284" value="" style="endArrow=none;html=1;rounded=0;entryX=0.5;entryY=1;entryDx=0;entryDy=0;exitX=0.5;exitY=0;exitDx=0;exitDy=0;" edge="1" parent="v2-fmsgGhTJ59re-nVzk-257" source="v2-fmsgGhTJ59re-nVzk-258" target="v2-fmsgGhTJ59re-nVzk-251">
          <mxGeometry width="50" height="50" relative="1" as="geometry">
            <mxPoint x="320.00333333333356" y="138.33333333333303" as="sourcePoint" />
            <mxPoint x="190.00333333333356" y="217.33333333333303" as="targetPoint" />
          </mxGeometry>
        </mxCell>
        <mxCell id="v2-fmsgGhTJ59re-nVzk-322" value="m" style="text;html=1;align=center;verticalAlign=middle;resizable=0;points=[];autosize=1;strokeColor=none;fillColor=none;" vertex="1" parent="v2-fmsgGhTJ59re-nVzk-257">
          <mxGeometry x="111.67000000000007" y="238.32999999999993" width="30" height="20" as="geometry" />
        </mxCell>
        <mxCell id="v2-fmsgGhTJ59re-nVzk-323" value="1" style="text;html=1;align=center;verticalAlign=middle;resizable=0;points=[];autosize=1;strokeColor=none;fillColor=none;" vertex="1" parent="1">
          <mxGeometry x="1820" y="1960" width="20" height="20" as="geometry" />
        </mxCell>
        <mxCell id="v2-fmsgGhTJ59re-nVzk-324" value="m" style="text;html=1;align=center;verticalAlign=middle;resizable=0;points=[];autosize=1;strokeColor=none;fillColor=none;" vertex="1" parent="1">
          <mxGeometry x="1732" y="1960" width="30" height="20" as="geometry" />
        </mxCell>
        <mxCell id="v2-fmsgGhTJ59re-nVzk-325" value="1" style="text;html=1;align=center;verticalAlign=middle;resizable=0;points=[];autosize=1;strokeColor=none;fillColor=none;" vertex="1" parent="1">
          <mxGeometry x="2140" y="2400" width="20" height="20" as="geometry" />
        </mxCell>
        <mxCell id="v2-fmsgGhTJ59re-nVzk-326" value="1" style="text;html=1;align=center;verticalAlign=middle;resizable=0;points=[];autosize=1;strokeColor=none;fillColor=none;" vertex="1" parent="1">
          <mxGeometry x="1900" y="2450" width="20" height="20" as="geometry" />
        </mxCell>
        <mxCell id="v2-fmsgGhTJ59re-nVzk-327" value="1" style="text;html=1;align=center;verticalAlign=middle;resizable=0;points=[];autosize=1;strokeColor=none;fillColor=none;" vertex="1" parent="1">
          <mxGeometry x="1730" y="2240" width="20" height="20" as="geometry" />
        </mxCell>
        <mxCell id="v2-fmsgGhTJ59re-nVzk-328" value="m" style="text;html=1;align=center;verticalAlign=middle;resizable=0;points=[];autosize=1;strokeColor=none;fillColor=none;" vertex="1" parent="1">
          <mxGeometry x="1795" y="2240" width="30" height="20" as="geometry" />
        </mxCell>
        <mxCell id="v2-fmsgGhTJ59re-nVzk-329" value="1" style="text;html=1;align=center;verticalAlign=middle;resizable=0;points=[];autosize=1;strokeColor=none;fillColor=none;" vertex="1" parent="1">
          <mxGeometry x="1664" y="2200" width="20" height="20" as="geometry" />
        </mxCell>
        <mxCell id="v2-fmsgGhTJ59re-nVzk-330" value="1" style="text;html=1;align=center;verticalAlign=middle;resizable=0;points=[];autosize=1;strokeColor=none;fillColor=none;" vertex="1" parent="1">
          <mxGeometry x="1891" y="2150" width="20" height="20" as="geometry" />
        </mxCell>
        <mxCell id="v2-fmsgGhTJ59re-nVzk-333" value="m" style="text;html=1;align=center;verticalAlign=middle;resizable=0;points=[];autosize=1;strokeColor=none;fillColor=none;" vertex="1" parent="1">
          <mxGeometry x="1885" y="2200" width="30" height="20" as="geometry" />
        </mxCell>
      </root>
    </mxGraphModel>
  </diagram>
  <diagram name="Page-2" id="mFW0KfRl7SBw-dLTcLCl">
    <mxGraphModel dx="754" dy="414" grid="1" gridSize="10" guides="1" tooltips="1" connect="1" arrows="1" fold="1" page="1" pageScale="1" pageWidth="827" pageHeight="1169" math="0" shadow="0">
      <root>
        <mxCell id="FdmRWvrHi44ohS71QSnJ-0" />
        <mxCell id="FdmRWvrHi44ohS71QSnJ-1" parent="FdmRWvrHi44ohS71QSnJ-0" />
      </root>
    </mxGraphModel>
  </diagram>
  <diagram name="Page-3" id="ayr1kfnKNumoEGRTtfwT">
    <mxGraphModel dx="754" dy="414" grid="1" gridSize="10" guides="1" tooltips="1" connect="1" arrows="1" fold="1" page="1" pageScale="1" pageWidth="827" pageHeight="1169" math="0" shadow="0">
      <root>
        <mxCell id="V76UKjKOv8cLBKRRRNTL-0" />
        <mxCell id="V76UKjKOv8cLBKRRRNTL-1" parent="V76UKjKOv8cLBKRRRNTL-0" />
      </root>
    </mxGraphModel>
  </diagram>
</mxfile>
